<svg xmlns="http://www.w3.org/2000/svg" viewBox="0 0 512 512" role="img" aria-labelledby="title desc">
  <title id="title">Ownloom Cockpit</title>
  <desc id="desc">A blocky pixel-loom diamond and terminal cursor on a charred walnut background.</desc>
  <rect width="512" height="512" rx="72" fill="#1a100b" />
  <path d="M256 76l180 180-180 180L76 256 256 76z" fill="#25170f" stroke="#f0c86d" stroke-width="16" />
  <path d="M256 132l124 124-124 124-124-124 124-124z" fill="#332016" stroke="#b84d35" stroke-width="14" />
  <path d="M256 188l68 68-68 68-68-68 68-68z" fill="#3d271a" stroke="#f0c86d" stroke-width="12" />
  <g fill="#f0c86d" opacity="0.95">
    <rect x="116" y="92" width="28" height="28" />
    <rect x="368" y="92" width="28" height="28" />
    <rect x="116" y="392" width="28" height="28" />
    <rect x="368" y="392" width="28" height="28" />
  </g>
  <g fill="#b84d35">
    <rect x="156" y="132" width="24" height="24" />
    <rect x="332" y="132" width="24" height="24" />
    <rect x="156" y="356" width="24" height="24" />
    <rect x="332" y="356" width="24" height="24" />
  </g>
  <path d="M188 226l44 34-44 34" fill="none" stroke="#fff5df" stroke-width="26" stroke-linecap="square" stroke-linejoin="miter" />
  <path d="M252 300h84" stroke="#fff5df" stroke-width="26" stroke-linecap="square" />
</svg>
